<mxfile host="app.diagrams.net" modified="2020-11-18T11:22:53.787Z" agent="5.0 (Windows NT 10.0; Win64; x64) AppleWebKit/537.36 (KHTML, like Gecko) Chrome/86.0.4240.198 Safari/537.36" etag="V-2PK1OQGI-wE1uVHzC9" version="13.9.9" type="github">
  <diagram id="vMZ_HEUuOQoIKs21IjBn" name="Page-1">
    <mxGraphModel dx="1422" dy="762" grid="1" gridSize="10" guides="1" tooltips="1" connect="1" arrows="1" fold="1" page="1" pageScale="1" pageWidth="1169" pageHeight="827" math="0" shadow="0">
      <root>
        <mxCell id="0" />
        <mxCell id="1" parent="0" />
        <mxCell id="J7JJR4KkGGpUHsGLaVsS-14" style="edgeStyle=orthogonalEdgeStyle;rounded=0;orthogonalLoop=1;jettySize=auto;html=1;entryX=0;entryY=0.5;entryDx=0;entryDy=0;dashed=1;" parent="1" source="J7JJR4KkGGpUHsGLaVsS-15" target="J7JJR4KkGGpUHsGLaVsS-20" edge="1">
          <mxGeometry relative="1" as="geometry" />
        </mxCell>
        <mxCell id="J7JJR4KkGGpUHsGLaVsS-15" value="" style="shape=image;verticalLabelPosition=bottom;labelBackgroundColor=#ffffff;verticalAlign=top;aspect=fixed;imageAspect=0;image=data:image/png,iVBORw0KGgoAAAANSUhEUgAAAZAAAAGQCAYAAACAvzbMAAAABHNCSVQICAgIfAhkiAAAIABJREFUeJzt3XuUZFV59/Hfs09199y4zc0LIBDRyGUgRuI1iYLwqgQjGhxUTAgSndDV1SAqYqLptFkqSLjYXTWT1tcXGTVGSBTQaBR1YpYBIkZFRC7hqijODCPKAHOrOs/7BzNZk5HMdFed2rtO1/eTVX+4Mpznqa5z6ld7n3P2kQAAAAAAAAAAAAAAAAAAAAAAAAAAAAAAAAAAAAAAAAAAAAAAAAAAAAAAAAAAAAAAAAAAAAAAAAAAAAAAAAAAAAAAAAAAAAAAAAAAAAAAAAAAAAAAAAAAAAAAAAAAAAAAAAAAAAAAAAAAAAAAAAAAAAAAAAAAAAAAAAAAAPqApW6gm9zdJiYmDs2y7LmSDnL3A83sGZIOkLTf9n+2307//jFJD5vZw+5+d61We0uCtgH0kHq9vtLMntVqtQZCCAvcfdDMtuZ5/qikLVmW/crdf2Fm90m638zuN7O7zjrrrHWJW++6WRUgExMTQ1mWvdTdj5N0jLs/z8z2bWdb7v5ArVY7sOAWAZRMvV7/kaTDZvrfufsDZnaTpJvM7Ntbtmy5/txzz91UfIfpVFI30KmJiYklIYTXmNkfuPvx7r5gx//PbFblI4AE3P2xdr5LzOwAPTHb8Vp31+Dg4OZGo/Etd/+amV1brVZvK7zZyEoZIGNjY2HRokXHhRD+xN1PkTTX3VO3BWAWMrNHC9rUHHc/XtLx7n7B5OTkj8xs9cDAwMdXrFjxUEE1oipVgDQajQXufpakYUkHS4wyAHRdUQHyP5jZ4ZIu2LZt21/X6/WrJa0aGRn5t27U6pZSBMhFF100f86cOX/m7udLemrqfgD0DzN7rMszHHMkvUHSGyYnJ/89hHDh8PDwF82s56dVQuoGdmdsbKxSr9fPmTt37n1mdpkIDwDxdWUE8mTM7CXufm29Xv9eo9F4Tay67erZAFm5cuXzlixZcr2kSyUtTt0PgP60/fL+qMzsaHe/ul6vf2PlypVHxa4/XT03hbX9PMfftlqtt5pZzwYcgL4RbQTyJI5ttVr/OTEx8XdZlr2nWq2m7OXX9NQXtLubu18uaQXhAaAXuPvjKeubWSWEMOLuV1155ZVZyl521VNf0vV6fVzSKan7AICd9Mqv/leuXbv2otRN7KxnAqRer7/WzN6bug8A2EWvBIjM7O2NRmNF6j526IkAWbly5YHu/gnNsqVVAJSfmUU/ib477j4xOTm5LHUfUo8ESKvVqpvZ3qn7AIAn0TMjkO0GzWz11NTUQOpGkgdIvV7/YzP7w9R9AMCT6bURyHa/1Ww2z0/dRNIAueSSSxZKuiRlDwCwB702ApEkuft7V65c+Zspe0gaIENDQ+8UNwkC6GGtVqsXRyCSNOju4ykbSBYgU1NTi919JFV9AJgOd+/JEYgkufvyiYmJ56aqnyxAtm3bdp6kvVLVB4DpyLKsV0cgkmQhhPenKp4kQKampvZx9+EUtQFgJrY/uraXnTQxMXF4isJJAqTZbL7BzOanqL2rPM8fNLPPuvu7zexN7v5KM3t+pVL5vdS9AUhvdHR0S57nS0MIC7Mse8r253icIulCd785dX+SFEI4M0XdJDfu1ev1GyW9IEVt6b8fUfnpPM8/XqvVbirDuvsAetOqVauObLVaw5LOlDSYqI2H8jw/YHR0dEvMotEDZGJi4vAQwq2x627nkj5uZu+rVqs/T9QDgFlocnLyEDObkHRSohZOHRkZuTJmwejLuYcQTo1dU5Lc/ZdZlr15eHj4n1PUBzC71Wq1eyW9utFovNXd64o/GvlDSVEDJMU5kBNiF3T39ZJeRngA6LZqtfoxM3ulpFbMuu5+vLtHnVWKGiDbr776nZg1JW3OsuzkWq3WEye7AMx+1Wp1jbt/NmZNM3tKvV6P+vTCqAGydevWY80s9rTZXw4PD18fuSaAPufuH3D3PHLZqDM8UQPEzF4cs56737x06dKPxKwJAJI0Ojr6oxDCP8WsGUI4Omq9mMUkPSdmsRDC2PLly6POQwLADq1WazJmPXc/LGa92COQmAFy/7p1674QsR4A/A8bNmz49zzPH4xY8jdjnkiPFiATExNDeZ4fEquepE+Pj4/Hnn8EgP82Pj6em9nnI5ZcsGrVqgNiFYt2QjvLsgPdPVo9M/tyrFroorHv7autlaPlYWnqVqJxnyvTNslu0gVH3JW6HXQmhPC5mGv/NZvNxZJ+EqNWtC90d4/2yFp3f2z9+vU3xqqHLnjXD5+pij6ozf5amQ08sYhAn/jvCQiX3n3L9QrZufrQ4f+RsiW0r1Kp3LB169bczGLN+CyIVCfeFFYIIebS7beOj483I9ZDkd59y8tk+o5cy58Ijz5m9mJ5/m86/4dvTN0K2rNixYrHzeyeWPXMbPYFiCKmopn9KFYtFOy9Nx8i0+cUtG/qVnrIoFyX6/wfJXtwEDp2S6xCZhbtx3q0AHH3ubFqmdlPY9VCwZrZByTbL3UbPcc0JPMLU7eBtsVcQHZbrELRAiTP85hP9WKl3TI67/a95Hpd6jZ6lvvL9Re3PS11G5g5M/tFxFq/jFUr5hTWIxFr9foTxPBkrHW0TEOp2+hhQc1W1LWOUIw8zzfFqtVqtQiQTrj75li1UKCghalb6Hlmi1K3gJkzs2gBUqlUfhWrVrQAMbOYAcLyJaUU7TLH8rI0TxFFZ2L+qG02m1tj1Yp5DoQvdQD9alauisEvPgBAWwgQAEBboj8THeiWuQPh8f33qvzCQu+te9LKPfzskXzh5mYr2v1QQLcRICi93z9k/m3/dNoBWxfPryyTFG0l0ja0HtzY+s6Jn7h3v+//bMszUzcDdIopLJTaK549/5Zvvu3gQxbPrxyt3t+fs6ftlR3z3ZFDlx5z4Nz/St0M0KleP+CA3br6zQfNlTQndR8zYaa9vnLGwY+n7gPoFAGC0jrsKXPumzNgh6buox0L54ajlswL0Za3ALqBAEFpHbxviLk8TtHsoEVDG1I3AXSCAEFpZcF67mqrmRgMxs21KDUCBEhkKCNAUG4ECJDIYGV2Lm+B/kGAAIkMZAQIyo0AARKZk2VMYaHUCBAgEUYgKDsCBEhkKIRSX0UGECBAIoNZYASCUiNAgEQGB40AQakRIEAigyW/ERIgQIBEhggQlBwBAiQyNECAoNwIECCRwUrvPTkRmAkCBEhkMOMyXpQbAQIkMlghQFBuBAiQyFCWugOgMwQIkMgARx9Kjl0YSGTOYMYUFkqNAAESqVhuqXsAOkGAAIkMZIxAUG4ECJDIYBAjEJQaAQIkMpCRHyg3AgRIpFJJ3QHQGQIESGQoYwiCciNAgEQqxjkQlBsBAiSSZQQIyo0AARIZygIBglIjQIBEKmYECEqNAAESqWQECMqNAAESyYJz/KHU2IGBRCrBOP5QauzAQCKVwEl0lBsBAiTCFBbKjh0YSCRIPJMQpUaAAIlkxvGHcmMHBhLJssDxh1JjBwYSyQJTWCg3AgRIJIjLeFFu7MBAIsZJdJQcAYLSuvsXrX1S99CJR7a0HkndA9AJAgSlddvazQc/ti2/M3Uf7br8u49sTN0D0AkCBKX26k/8eJukx1P3MVPrNzW//96vPPii1H0AnSBAUGpr7nnsiBc07nngwUe3/aekZup+9iR3/8U/3/7ovx74wf96TjPXQOp+gE5UUjcAdOrbD2x69tM/cKcGMtu6YDD7Zep+dsMe3tRcKOllqRsBikCAYNbY1vLBhzc1B1P3AfQLprAAAG0hQAAAbSFAAABtIUAAAG0hQNA7LP9V6hZ6nombD9EzCBD0kOx2uTx1Fz3L5cr1/dRtADsQIOgdHzzsQZl9M3UbPcv0LV14xI9TtwHsQICgt+T2HpXgjvIEmsrtnambAHZGgKC3fPjwGyWdJbdW6lZ6SFNub9WHj/h26kaAnREg6D0XHPl/lfkJkv8gdSvJmX9HbsfqwiM+kboVYFcsZYLe9MEj10g6Wu/+4dGSjlbQU+WyQra9cd1rZfm8QrYlSfMXf15WKXJF4K1ye1iym3TB4bcWuF2gUAQIetuFR94s6eZCt3naFSOSDihsew///ER9+s0PFLY9oCSYwgIAtIUAAQC0hQABALSFAAEAtIUAAQC0hQABALSFAAEAtIUAAQC0ZVYGSAiBJcEB9JLZ+V2buoFuMLNNqXsAgB3M7Gmpe+iGWRkg7l7kukQA0BEz2z91D90QLUDcfW6sWq1W67FYtQBgGvaLVcjdo32vRyuUZdlesWoNDAwwAgHQM9x9TqxalUplfqxa8ZIqhGgBwhQWgF5iZtFWPnf3vWPVihYgeZ4TIAD6Up7n0b6TzGxBrFoxz4HsG6nU1iVLlqyPVAsA9sjMNsaqNStHIGZ2WKQ69y9fvpznaQPoJWsj1jooVqGYl/Eui1Ekz/N7YtQBgOkys3tj1XL3o2LVmnUBYmYECICeYmZ3Rqx1dKxaUQJkYmJib0UaVrn7fTHqAMB0rV279hZ33xKjlrsfMTY2FuWqrygBkmXZ8ZIsRq0Qwh0x6gDAdI2Pj281sx/EqGVmQ0uXLn1hjFpRAsTdT45RZ7v/iFgLAKbruoi1XhOjSNcDZGpqah9Jf9TtOtvdV61Wfx6pFgBMm5l9OVatPM9Pn5iYGOp2na4HyNatW98qaV6362z3jUh1AGBGlixZcoO7PxCjlpktybLs1G7X6WqAXHrppfua2fndrLGzmAkPADOx/f60T8Wq5+7j3R6FdDVABgYGLpa0qJs1drK5UqnEnGMEgBkJIXxcUqwbnQ/Osuz93SzQtQCp1+unS3pLt7a/KzP7wooVK34Vqx5KLSt0ayGflc/VQfGq1epdkj4fq16e5++cnJz8w25tvys7fqPROEXSx7qx7f+NmV0Rsx5K6rRP7S3XkkK3mbd+o9DtYbb7kKQoj902s2Bmn5mcnHxFN7ZfaICMjY1VGo3G+/I8/6ykgSK3vQd3rl27lvMfmIa8JlOxN1mZzi10e5jVRkZGvuvun4lYcp6ZfaHRaLxjbGys0O/8Qjbm7lav109cunTpt939/WYWe0h/8fj4eB65JsrmzZ9YLve/Kny7Hl6tN67+G710TbRnPqDczOwv3D3mk1MH3P1vFy9efEOj0fg/RW207bvDp6am9mk2m8dIOtbdT5V0aFFNzYS73z44OHjUihUrtqWoH92rJoa0cO/flekZym1p6nZKwWxIub9UQcd1tY7rh5KulfRIV+vMKv6Igt+rLfO/pauWP5q6m5gmJydrZjaRqPyd7v7ZEMKaVqv1n6Ojo23tszMKkEaj8SV3P1jSEkmL2ylYtBDCScPDw/+cuo+u+5MrFqllfynP/0xm0R7OBUTh2iTTZ9Rqvk//cObPUrcTw9jYWFiyZMnXJB2buhdJD0lab2b3VavVE6f7H81oqinP82WSDlOPhIekT/ZFeLzp8t9S078n+dsJD8xKprmS3qKQ3aLTLn9Z6nZiGB8fz5vN5hsl/TR1L3riO/2w7d/x01bmyw/vCSGcnbqJrjv18oNl9lWZHZi6FaDrzBZK9mX98epjUrcSwznnnLM2hLDc3Tel7qUdZQ2QR9395OHh4YdTN9J1Fa2WrNjLToGeZnOU+6f65aKE4eHh60MIp7p7M3UvM1XGAHnc3V9Tq9VuSd1I1532iZdL4fdStwEk8Js68P43pW4ilmq1+oUQwp+WLURKFSDu/kszO6lWq/XHoolur0/dApCOn5K6g5iq1eqnJb1e0ubUvUxXmQLkTkkvqlara1I3Eo3Zb6duAUgmD323/9dqtaslvcTdf5y6l+koQ4C4pI+a2fNqtdrtqZuJynPOfaCfPSV1AymMjIx8V9KLJH09dS970usnqa4PIbxreHj4+tSNJGHW658P0D1FLzlTIrVa7WfufkKj0ai5+wfNbH7qnp5ML35ALulr7n5xrVb7SupmACAFM3NJE5OTk/8o6QJJb1YHq4d0Qy9OYZmkLWbWX9NVALALd7csy55rZk9L3cuT6cUAkaST3P3WycnJs929pxIXAGKYmJj4vXq9fmOe51909+PVY6MPqXcDRGY238wuq9frX5ucnHx66n4AIIaJiYm96/X6VAjhm2b2/NT97E7PBsgOZnacu39nYmLihal7AYBuWrVq1ZEhhO9Jept6cMSxq54PEEkKITzNzP61Xq+/NnUvANAN9Xr9hFardb2k0jzhshQBIklmNuTuVzYajdNS9wIARarX6ye4+zWSSrXadmkCRJLMrOLuV9Tr9T9K3QsAFGFycvJod/+8mc1N3ctMlSpAtsvc/ZP1ev1FqRsBgE7U6/VFZnZNr94ouCdlDBBtT+rPcXUWgJJbKemg1E20a0YBEkK4Jc/zH0pa16V+ZuKpkj45NjZWyhAE0N8mJydPlrQ8dR/brcvz/IchhBk9JmNGS5ns/KzcRqOxwMye12q1jpV0qpk9ZybbKoKZHbd06dJhSfXYtUvL9ZCCv0Nbtlyjq1b8KnU7KLlXTQxp0X7Pl/vFkv9O6nbKYmpqaqDZbH7Y3VO1cIe7/0OWZWuGhoa+e+aZZ25sZyOFXWc8MTFxvKS/CSHEvl/j0VardcTZZ59diuWPZ+S0K34i6YDiNui/lA/8lv7+tPuL2yYg6aVrKtr/x1+W6fhCt/vp03v+Xoh2TE5O/rmZrUpQ+iZ3f19R6wwWNv0zOjr6tQ0bNrzEzM6VtK2o7U7DgizLPhixXomFccIDXfHNY5tq5W+VPE/dSq+78sorMzN7R+SyLUnnL1269EVFLlJb6PmD8fHxvFqtXmpmJ0V+SPyb6vV63z18ZsaCWN0Y3fPZM+6TnEVQ92D9+vUnSTo0Vj133+LurxsZGblw+fLlrSK33ZUT0NVq9ashhDe6R/s1YmZ2fqRa5ZWHtuY5gWnzwHm1PXD302OWCyGcWavVru3Gxrt2BVO1Wr0mhHBJt7a/K3d/3cqVK0uzBACA/rNy5cr93P3EPf/Lwnxs+7PWu6Krl8DOmzfvfZJizbln7v6WSLUAYMbyPH+FmQ1FKrdu7ty57+xmga4GyBlnnLHZzP66mzV2luf5H3NfCIBe5e6viljuQ+1enjtdXf+yXbdu3d+7+9pu15EkM3vGokWLenr9fAB97bhIdTbOnTv3490u0vUAGR8f32pmXZuD25WZxZxfBIBpWbVq1f5mVuB9Xbt1VbdHH1KktbDyPL86Rh1JMrNib2QCgAK0Wq1osyNm1pWrrnYVJUA2bNhwg6TNMWpJeu7Y2NhgpFoAMF3PjlFk++0TX49RK0qAjI+PN83sthi1JM1ZtGjREZFqAcB0RbnNwMzuqVarj8aoFe2KJXf/QaxaIYRnxaoFANNhZrHuU5vRirqdiBYgZnZzrFqSDolYCwD2yN0JkHa5e8zVcp8asRYA7NbY2FhF0oExarn7HTHqSHFHIDHXYVoQsRYA7NbixYuXShqIUSvLsmjrkUULkFar9UisWnmel/L5wgBmp5jfSc1mM9p3bbQACSHeSrBmFvN5JACwWyGEeRHLRbkCS4o7Aok5hbUlYi0A2C13nxurVpZl0b5rY54Difmksg0RawHAbplZtBFIq9WKddN2vACJ7GepGwCAHWIGSEyzNUDWpW4AAHYwszmpe+iG2RogMafLAGC38jy31D10QyV1A7PF22944dzBRze+2YOOd4X95er4F8e2rZc9oqDC1hAbyFrX6Ixl3u5/b9I6l98SQrb6wuNuvrWovpDOedcte7lMp+TyZ5tsn06398jGqafnHh4uojdJ2veMZd/p5L836TEzv8vNrvnwsbd8Qaa293/8OgKkAOddt+yF2vjYVW7hAOVSUT81BgeaBW1pJx0ePiZ7Vd5sveO86w6/5N6Hj3jPVcuvahXTGGI6e83R+w5ua35a0olyKRS01+6zoOALgFzP63gTbr8v6S3nffXI63XdwOs/fML3OEdakNk6hRXNu69btqwlv85NB7ie+H6e7S+ZZa7sXQcvvPXigv6MiGjsysMHB7flX5SFE1PvS1FfwV6c+7av17506N4F/Sn7HgHSoVYrnwpuC9IfHfFfnofRd371qBcU85dELI/tlw1Leknq/SfFy2TPGRwYfG8hf0gQIJ14+3XLlinYi1z9+X+STNZ8a+rPATPjua9Ive8k3W9zO3NszUuZvi8Af8QOZC0/prATHiXlbsek7gHT986vHjVfnj/nifzvTyZbuLH1y9+QdGfqXsqOAOmAm+9r3t8JYq5FqXvA9LW22r4ZR720NV+YuoXZgF2pA+7W3+mB0hkIuXHZnBRCn//yKwgB0qk+ngqQxPsvIz6z4q6173OcRAcAtIURSCdaUr8PhFkzpnycEYhafX7cFoUA6UhOgjAfUj4kiLSt34/bYhAgHeJQRJlsEgc9isO+1IlcnIxD+fCrBwXhJDoAoC2MQDqQS33/a67P334pcQoERWEEAgBoCyOQTvX7r7l+f/9lxGfGucuCECCdyCXv86Ox399/6WySvMJnZizoUgimsAAAbWEE0ql+/zHX7++/jPjMpC48LbofESAdYBkPvovKiM+MUyBFIUA6QYLwbVRGfGYoCAHSob6/pr7f338J9f0+K5bCKgon0QEAbWEE0omWmExF+TAC4bgtCAHSgZaaMmWp20iME0Flw707KAoB0imORZQN+6y0LXUDswMB0gmWc0cZESAoCAHSIY5FlA37LIpCgHSKoxFlwz6LghAgHWAGC2VEfnDcFoUA6RRHI8qGfZYEKQgB0jGORpTJJnHYoyjsSZ3IiY+cX3Llsklyjnq12G8Lwa7Uqb5PkNQNYMb6fZ+VWM69IKyFBQBoCyOQDuQ55+L4NVsumyTxRFsUhREIAKAtjEA61e+/5vr9/ZcRnxlTBwUhQDrRktz6+2hkZdfycZ4oJRkJUgSmsAAAbWEE0qF+/zHX52+/lPp9n5UkYzn3QjACAQC0hRFIJ1hNEWXECAQFIUA6wE3YfBeVEZ8Zv/uKQoB0iqMRZcM+i4IQIJ3q+zOS/f7+S6jv91lJxmJYRSBAOsShiLJhn5W4CKsYBEgnOAnCZHLZ8DiQJ7DfFoJdqQMtsR+ifBiBoCgESKf6/WhkFFY+/b7PSjwPpCAESCf48uTLqIz4zFAQAqRDHIsoG/ZZFIUA6VS/XxLZ7++/jPjMOHlZENbCAgC0hRFIB/IWjxXgt2z5MADhuC0KIxAAQFsYgXSKX3MoG/ZZbkUvCAHSkbzl3t9jYedi5lLZnFdaFbVSt5FcywN/hAIwhdUBy21d6h6SM/08dQuYvi37hQ0u7/svTw8t9tsCECAdaLn+LXd39ydOTPbjS+7/mvpzwPRdtfxHW911Q+r9JuUrz3XPJ1fc8+PUn8VsQIB0YPVZ//VTz/0zT0wq9+Mr35zLG0X8LRGPmV+cft9J+DK/uIi/IwiQjlk+MOq535X6mIj9cnf3XH/OL7nyuWLF3VfLW1Op96E0r/yaQx686+8K+UOCAOnU6pHbN2RNe3Gu/JrUQ/N4L/9p7nrd6uG7r0j990d7rvjze8+S+1/k7o+l35+6/8rdt7r7RUNhv9ePj3PhR1G4CqsAl4/etV7SyafXn3mEsvBy9/zpqXvqBpc/HhS+r7nNr37qjPs3p+4HHTD5Fbr7Q39Sf85HzTb/gcsOlYXB1G0VzcyaLr9voFn50v+r3fGz1P3MNgRIga4YuftWSbem7gOYrtUjt2+QtDp1HygnprAAAG0hQAAAbSFAAABtIUAAAG0hQAAAbSFAAGAWcfdo3+uzMkDMeFwMgP5kZgti1YoWIO4+N1YtM5sTqxYA7EkIIdo9dyGEfaLVilYo4ptydwIEQM+I+QPa3feOVSvmCGTfWLUkESAAekm0aSVJsy9AIo9AFsaqBQB74u5Pi1huS6xCMU+iD8QqZGZHxqoFAHtiZvtHLPdorEIxAyTam5K0LGItANitmD9qQwgbo9WKVijim3L3Qy+66KL5seoBwP9mbGxs0N0Pi1hy9o1A8jyPFiBmFubMmfOCWPUA4H+zePHiFyvehT0u6SeRasULkFar9VCsWtv9UeR6APBrQgivilXL3X9arVZn3whkdHT0J4o4tDKz142Njc3KO+0BlMPY2Fhw9zfGqmdmt8WqJUUMEDNzSXfGqifpqUuXLn1xxHoA8D8sWbLkFEkHxqqX5/kdsWpJkdfCcvfbY9aTNBK5HgBIksbGxiqS/ipmzSzLbopZL2qAmNn3Y9bL8/z1jUYj5tUPACBJWrJkyXmSjohZs9VqfSNmvagBkuf512LWM7Pg7n8ZsyYATE5OvsTdo44+JN02Ojr6QMyCUQOkVqt9393Xxqwp6Q2NRuPYyDUB9Kl6vf7bZna1mQ3FrJvn+ddj1pPiT2G5mUUdhUjK3P1f6vX62yLXBdBnJicnT3b3NZIWx66dZdnVsWtGW6N+B3e/xsxOi1x2UNJUvV5/dQjh7OHh4Xsi1wcwi61atWr/Vqv1AUmnJ2rhvnXr1q2JXTT6k/smJiaGQggPKEFCb7dV0uXu3qjVarck6gFAyY2NjYVFixY9P8uyP8vz/E1mFu2ZH7ty9/FarfbXsesmefRrvV6/WNK5KWrv4geSvuLuN7n7rXmebxgcHNzabDYro6Oj61M3ByC9j3zkI88YGBiYm+f5QklPN7NnufvzJP2+pKWJ25O755VK5ZlnnXXWfbFrR5/CkiR3/5iZvV2JAmwnR0k6ysxkZgohKM9zhRDUA70B6AEhhH/P8/yAHf/b3VO282vM7HMpwkOKfBJ9h1qtdnue519KURsAZhEPIfxNquLJ1ooys/e4e56qPgDMAlcNDw//IFXxZAFSq9VuMbN/TFUfAMrM3ZuS3p+yh6Sr1YYQ/kpPXBUFAJiBEMIlIyMjtybtIWXx4eHhOyQlm78DgDJy93sff/zxpKMPKXGASNL69esvkBR1BUkAKDF397e9613veix1I8kDZHx8vGlmp0vanLoXAOh17n7Z6Oho7CWhnlTyAJGkarXQeFxLAAACoUlEQVR6m6SzU/cBAL3M3b/x0EMPnZe6jx16IkAkaWRk5KOSLkvdBwD0qPvd/Q3j4+PN1I3s0DMBIknr169/h7tfm7oPAOgl7v6AmZ3ca0ss9VSAjI+P5yGE0/I8r2+/xhkA+plL+uS2bduOrlarUZ/oOh1J1sLanWq1+qik2sqVK+t5nl8i6cTUPQFAbO5+t6S31Wq1qI+pnYmeGoHsbHh4+I6RkZE/cPfXSOq55AWAbnD39ZLOX7BgwZG9HB5SD45AdlWr1a6VdG2j0fhdSWPufnzqngCgCzZKWjlv3rwPnHnmmRtTNzMdPR8gO1Sr1W9JOqHRaPxunudnSXptyge4AEAR3P12M1s1MDBwxYoVK36Vup+ZKE2A7LA9SL516aWX7lupVN5gZn8q6QWJ2wKAaXP3LWb2RTNbVa1Wv2FmvfWQkWmaFQ9Nuuyyy54yMDDwCkknufsrJe3V6TZHRkZmxd8GQGcmJyd/YmYH7Plf7tHjkr5hZldVKpVryjbaeDKlG4E8mXPOOWetpNWSVl9yySVzh4aGXujuz5f0O5KOkXRQ0gYB9KN17n6jmd3o7jcsWLDgxjPOOGNWLdk0KwJkZ+eee+4mSWu2vyRJU1NTi7dt2/ZMSQe5+8FmdrCZLZa0IM/zITPbZ6dNPGJmrchtA+hRZvYvZnZwnud7u/u8EMI8M2u5+yOSNpnZ5jzP14UQ7s3z/F5J95rZ3SMjI/en7h0AAAAAAAAAAAAAAAAAAAAAAAAAAAAAAAAAAAAAAAAAAAAAAAAAAAAAAAAAAAAAAAAAAAAAAAAAAAAAAAAAAAAAAAAAAAAAAAAAAAAAAAAAAAAAAAAAAAAAAAAAAAAAAAAAAAAAAAAAAAAAAAAAAAAAAAAAAAAAAAAAAAAF+P8LIpCJIlD8LgAAAABJRU5ErkJggg==;" parent="1" vertex="1">
          <mxGeometry x="10" y="10" width="60" height="60" as="geometry" />
        </mxCell>
        <mxCell id="J7JJR4KkGGpUHsGLaVsS-19" value="" style="shape=image;verticalLabelPosition=bottom;labelBackgroundColor=#ffffff;verticalAlign=top;aspect=fixed;imageAspect=0;image=data:image/png,iVBORw0KGgoAAAANSUhEUgAAAKAAAAA2CAYAAABA8JJzAAAAAXNSR0IArs4c6QAAAARnQU1BAACxjwv8YQUAAAAJcEhZcwAADsMAAA7DAcdvqGQAAAAhdEVYdENyZWF0aW9uIFRpbWUAMjAyMDoxMToxNiAxNjo1OToyN1/Wv44AABBqSURBVHhe7Z0PeFPV3cd/IH9a5p8WK6aTgsE6ba1Kgfk2ZXOSihvlce8Mso32YbMEeYftu2eOyh6I4CN2uLEA/mllaoqvsLYqa33Et0HBFhmQANIEqKbIn6aUlhQoJm2BBFr62zk3J+3Nzc3ftnTA/fj85NxzTu693PvN7/z7nTAECSAhMUgMZX9KSAwKkgAlBhVJgBKDiiRAiUFlwAWot37HUhISvgyYAC92dsOf/mWFpz6xwKMfHIQ9tg5WIiHRy4AIcP3XLZD03n5ouXAZ6nKmwC/ujYPHNx2CxTus4OrqZrUkJAD6dR5wd3M7vGw8Ae2Xr8BLivEwQx7LSgBOtF+CZbsbuDqvTB0PWUljWInEjUy/CLDV2UmE1wj/sJwhwhsHf5h8Fyvx5ZNj54gQT8C9sdGcEJNvH8VKJG5E+twEF5pPkea2Brq6kTS3kwOKj/LfibfDod9OgofiRsHEDSZ4ZU8jK5G4EYnYA247YYeXDY0w4qYhXHP7k4TbWEno1LZegOXEGza0uWDF1LvhyXtGsxKJG4WwBdhI+nK0n/eZ1Q4vpY+DBQ/Fs5LI2Uia7uWkf/hYQgwR4nhIuGUkK5G43gmrCV71VRM3uo0ZOQzq5k3pF/FR5iaPgW+emQyjo4bBA/9XA6+bmlmJxPVOSB6QDhzoIOP73xvBeb0fym5hJf2P4VQ7N0jpvNLNNcuPRdC0DxhdLVC9UQulZWawjk2FrLn5oJ4mY4USEUEF6I+6cxfw1/9fh4m6fbjxm9Ms9+pQaG7G0YUG/N+qY2h3dbLcwcSOlQtl9MvKMxnmbrazcolIEPWANOP57cfhrQM2+N3D8ZA/ZSwMGzrEXXgVOXOxE7T7m7gBzzMP3Al/fVTOSiLD1WSEio/LofpTMxhqq6GuhRUkKkApT4bU6QpI/3E6KCcmQUwUK/Pg0ENe7EwoYoc9LKwE+1uZEMMOJcLDbxM8Yu0uGEI0R2U38qahgyJACp3ecV0ht0hu89LzP2K5YdJqhNXPZUP+JivLCIYc1JsNoHuS17y2VEB2/CwoZYc9zC0H2wYV3JgNsRVKVRMg+2P3UYERQZPmTocMFaAYw9fsxAnv7sPFO+ox4e29+LttR7HN1cVKB56GNif+Rn+Yu/atr+/G20lzHBHWEsyS8ZvN0ExVamMn8FCPuhm+9TLX17PyGxEDanjPgggwbAKOghf/cCy3dHbwt5Ogm3ighzbUwAeHz7LSgUNLRtvJ79XAmFEj4OkfxMFPJ8TC8Eg8sMsMf56TDaWeppaHPE0JyuluSwrJfRGvuMEA2hwFSRFIs61eZYCSnL51C65pDhhAz5IRw4ToA/WArq4rOLX0AOoOub3Bx0db8b7irzjPdOr8JS6vP9li/Q4f+YcZf/bPWtxra+cGQfQ+tjfaUfZW+F8ve4Xay1tRk83Voeksq8DDtDLVq56vB5TwxndQ1u8ekLL0vxLg1b0niQcE+AVbRhsdPRweft/ERb30B03nL4H68yMwn9j/PCyDLbNS4BHZLdx184kXvvtW4YggFBxg2FbM0h5UsHqlGlLj2CEPeUo6S0kEhU5HvZoN6nV9f/9BBZg5YTSkjrmZiMG9ZjuCDEjWPjYBSmbeB4VmG8z+tA6OO1xcWSS8VtMMD5Dm9tYRw8CSMwXmpbjbwy9PtsHWBgcseSSBOw4fK5hZ57iXSSAfy5ICYhLkkMrSPjSUwiwyIhsiZq8YWSURyIsyf1wM+fMyIEMxgX0mHpKV5HhePqz+22pR0x8jn/V3Td71HIf1ULx4vve5f54HRVus5OsXAg4r6N/Lh/lPpMMEz/njkyHjl3mwuswILV2sngeHEYqemwnJCfGQsVQPQvm9qGDn6DEyaGtihf5gntAHTxNMqWnpwFGv7cLmDt9mV7PTypW9aWpmOaGxrcGO6aR5f/yjQ7i7uY3l9vLEplp8vcZ9TqvDGUETbMACXvPgtkzUHWXFPtjRUl2FVcTK12tRZ+TN7xkLBOfh2QrxwZF9qwaVEQx+qHFNmb9rzi7BelsVamfLxcuZKch9Od23IoITLevVSHqvop/tsUQ16up4ZzlZgiqxen5NhSUn2Wf9EJIAKXlfHONMjF1NbfijsgM4o7wWD509z3LFsZG+44KtRzhBvX3wFMv1pqzuDE58v4YdRSrAeix5SuShpOViSW14k8c20pckftn3XNREBOgk4lGI1Q3RqAADXjMkS0Wtmd2QF040rFSGfm5ZLlZ6+syDKUDq/b73+i7OG/rjz3sauc/9Za/4VamX9KxufOf0v7rxEBHfh4fPsKNIBUh84ArhykWvyWfkora0Ci1n/fsJL5w2NKxR+Z5LKEAn8bwTBXVkWagz80Rvq0TNNO97U6wxsUIe/q4ZoqWKnNO5U4OkqyGoK8fMhRrUrtKgWnBf1GRLqpg3daLdbuescol3HWoavbuMb8GebsgCpBQYG3HWJxZ2JI7pdAfXfP7kg4NoPNXO5W1vdOCj5PixDw/ijpMOLs8fr9U04U/JKJhPpALEozrMFDwkMZOlZGLuG5VEjOxz/hBrFgUCdFZrBN5Fhou2irwG4b3JNFgl9rZEm2IZKp8txMo6j6jt5Mum8K23sJKU8BGby5RhbgW/llgd4gUFjYZhhbBOZKPgsATY3Y14j24fVh4/x3L8s3Z/E45YuxPvKDJiHLEis3hzy6ftUhfeSYQmFGnEAiTUfxRCX6fH5KhaVYU2f845BAHWv6MU1FkkLiz6oqfz64G4UMWuuUyk30kErRTWI/1Fr8kks9bX+03XkTvxxr4517sOMc1OVsjoLwGGFY5FBjawlIxKV+49yXL8QyOjd/zqYejovAKWZybDcxODh27RaZefyUfDo2P7LwJGPlsHptoSWBRS1IoVKhZnQOq8UpKKjJaWapbyEAvRorNI0RAtWEC2toY0dgUYzv7kExUddD3aWmsAM0v38ONk98Q6j5ikVCBi9qLuZP9MuQkJS4CUeQ+SF0mEWFwb/IbuiYniVjDuGCX2xLw5YnfC6v1N3LxjfxOTkgXaahvY6ypB94IaFImswA8tG7Mhe63PqwqJqGFCoZPriurKCtadLHmVaGmoYKleVLIYcDgc3uYiz4yVezA02FiqfwlbgBTqBT2T04EgLTwXzBAK9Hx/nHIX/CA2muX0PzH3Z4J6lQ4MRxGcZy1QVVoAWWzeUYhxlR4CzPD5RZ4yi6U8FEHxp77+1FpWCIWC73BSQiheOlJaiAdkSR4VC5IhNjbW2x6cD0KptnRFPtcbiIgEyE1O39k7Oe0Pun5Mm+1g/KupjfsFhcgnncMnKi4JlHM0UFJbB5Z3snyjWVpMYG1g6TCIUShBzdIeKn6TATOfK4KK7dVQvb0CihZkQHpWqfdErkwDyiksfQMRkQApVCy0L3jq/GWW4wt1kEND8IHU+9Hz3TZyGMvpO449xb6rC6LEQNKzRVCUww57qABrJN2eOBVoSoWCtoJ+XR7MoisgylmQ9261YBVBBllr1KCMZMXxGidiAU4iHpD2B6l4/ME1wUH0t+nbVk7EwbZzhovLqof8xfk9VmIOpKYYiPcJakmFqAgFIZ9TDNWli0AZUouqgNzSaiieM9BRNTKQP8iSPFQb6ulMSHBbpmCf6F8iFiCF9gXf+6YFTKfPsxxvyG0H9X+v7muEJQMw8BBSWhtoXGsFi0+HLx2S7mbJsIki/zl6PaiMNPdpfIHJIGmaGhatrwTLWQMUzkki9QeepIm5LNVLRVl1xCN+IU7h2nEI9EmA8TePIOIZ53dahg5S6KK0P940n4K46OHw6/vvYDkDyB4T1LGkNw4wr82DF7ewQw85SkiPKM7eBXXvZpM+XjF7samg2WSCKiPf09jAUq0DbU4mJIlE5gwUYv1T2DIfsmlggcgYw9VSB9Vlq6F4v2+h72gfQL/VSP72AoKIsk8CpNBpkwNnz0Nlve/PsLn7gOKc77zCNd9LiYCvCtvyIJlGejxB+mDL3f1CGqWSHB8Lk/4ojOxQgPb3qoj2ebi2vQjKBbwBxv1ycBmLoXQLHYC4zXi4hU15DMzI0i+kf5q7xrcpNb46E+Kjh8AEBemjPkH7qckQTxxHNH1eWfkw/y29T3RNfKJwphDA/IoKJv2cfJnZs02/dwjkbQkyt0m+kaLQlZCTHS52FJjiWhsXuCqkoc3FrWyIsXSnFefqD7OjwOxv6cCYN0Vm/wNgK410DVWO6o+81wbs1QWomq5ERaJ4fQUpU62oQjvasHyuWJ1AJkPSHCNpjrGev9xVqwt6TfUaQ+9Sm2igAD03ubeF5bzVjnosmet/jVzcRKKIQlzm9F0O9EZUgK0XL+O0Dw9hXJEBi8yhhVlNLeuNnPbALaGt28OOejlqv8gJ3HLuAsvxD13Su+0NA7mfg2Ftz7TrNX5enn+TTVskGikTkpi5ZS8nVi0J9+XyTJaFJVZ2UdE1YIHxl9oCRqoUoNfXt7Mey58PNSKGiHhOAVYe9V0mrF+vCnoOWQq5doDX5tcDUr7kBRF8GSSIoLL+HN7z7j680s0yCMeJAONFBDjvs2/xhR2BN/NsPtaKUzaauMAEGu4VKU6rCasqdKhdlst5FOW0JPdDkyWhkh7nLELtGyVosIou2HKELkBChwm1T/ZBhDnlbo8xkAL0YDNh+XoN5s7me1q311S/oEVdhQnr/Qc/cdi/KkHtQlXPc5WnkWc6Oxc15JlW9QRL+CegAD3QTeJ0V1ruF8c47+iPpzdbsMB4gh0hHrM78ft/9xYgFRMNTvAXjvVN6wX81afuzfDvX+XN8P1ChwEL0npfPvdCqNCppYQiTH/BC9cnIQmQcvrCZW5r5hjSp1t3QDyypea0d+Q0bWrHCgQ4s/xrXP1VEzvqhUbe0H4hbZqX727ALr4rvWYQbNRJ06JIlJ8bJ+kxmnUiW0aDB3FeT4Q8Ch4zajisezwRymbeDyV1ZyBjUy3sam5npW4mjfGenCb69pqGKT/SCg3tLm7Nlw/d3HTf+v3cr6h+/cxkeDl9PNw0SBvh+4TDAHr+Rp3p6f73mUTFgGyiEpTCyWHZJEjys2/luoQJMWzofg06Mv294Ldb6HZNT+T04e8u4ri397ISxMmkT1di6W1Wab9S+dEhTCsxo570Ia95bOWYxfdmMiVqKixoE+lHOW0WrFyZ6dOJTw24l+P6I2IBUqjYnt16hBtovH2wdwRcsMcdOU339Y5/xy1A2o/MIGKjnGx3cZ+jwarhbmb6z0b81xNCtjQyWAjS6b/e6JMAPWxtsKOC7nDb5N7hRntvNHL676SvKH9nH17ovIJ3kb7gFyfs3H4R6iH/UH0czwXYF3LNYq3EXN4gJFSTzy5EU/BB43XHEPo/8gD6BbrHd7nhBKhTZHBvbBQU154Gx6Uu7hfxaciVw9UF428dCcsUA/sbg4NOlwPqtpVD8aZSMOysBqNoJA5dD04H5YxZoHoqE5SJEa37XfP0qwApzecvwUu7T8BnDXYYPnQotF/uhI7L3TCOCK9g6t1XZ933PxCXw9G7TjosBmJuZukbnH4XoIfPiQDn6r/lPOC0hBj4/OkUViIh0cuACdCD5dxF6d8CkfDLgAtQQiIQfQ7HkpDoC5IAJQYVSYASgwjAvwEi0LM07DbeiQAAAABJRU5ErkJggg==;" parent="1" vertex="1">
          <mxGeometry x="510" y="19" width="124.44" height="42" as="geometry" />
        </mxCell>
        <mxCell id="J7JJR4KkGGpUHsGLaVsS-21" style="edgeStyle=orthogonalEdgeStyle;rounded=0;orthogonalLoop=1;jettySize=auto;html=1;entryX=0;entryY=0.5;entryDx=0;entryDy=0;" parent="1" source="J7JJR4KkGGpUHsGLaVsS-20" target="J7JJR4KkGGpUHsGLaVsS-19" edge="1">
          <mxGeometry relative="1" as="geometry" />
        </mxCell>
        <mxCell id="J7JJR4KkGGpUHsGLaVsS-20" value="" style="shape=image;verticalLabelPosition=bottom;labelBackgroundColor=#ffffff;verticalAlign=top;aspect=fixed;imageAspect=0;image=data:image/png,iVBORw0KGgoAAAANSUhEUgAAACAAAAAhCAYAAAC4JqlRAAAAAXNSR0IArs4c6QAAAARnQU1BAACxjwv8YQUAAAAJcEhZcwAADsMAAA7DAcdvqGQAAAGKSURBVFhH7ZQ9SgNBFIBzm5zAC3gCD6AXiI2d2grapIxgo6KgNoIhVVJIUFDUtVJBBQWbbOUPuIXG6uk38MIq4+7MJrIIM/Cxs/Oz8715s1OJTk+kTCozK1UpkyAQBILA/xTY6c7JXXwmWqhvd2etY/PwEphfH5Pe47W8JLHETzey1pk2MtTfPxIjwhjb3N/wEmCh+zgyi3TOG4P26LZp2uhHIj0nD2cBIqXUdydkYWvcvGtf83jJCCy3psyYdF8ezgJEzofZdiI+vNw0uwC8A3K0Xz3sW79hw1mAvBMhdX0qvGsbgs9J71t/FiMX4MnYdH8WzgJsK5Dv9te27x0tSqM1aaB+cLFh+jiIf5ICjYzDxiEk5xo5eacd3vqvg91wwVkAWFT/dRbVdhXgjvCJHrwEAAkOGYuttmvmBqRO5PTZ5mThLQBsMYtx+4GmwzY2j0ICClufTkURvAWIlH+ds5CGS4g/wjYnC28BCrfiz6JttjlZDJUCruaiuVeGEhgFQSAIBIGSBaryCSh6mpVcYc0JAAAAAElFTkSuQmCC;" parent="1" vertex="1">
          <mxGeometry x="120" y="20" width="38.79" height="40" as="geometry" />
        </mxCell>
        <mxCell id="J7JJR4KkGGpUHsGLaVsS-22" value="Client Certificate" style="aspect=fixed;html=1;points=[];align=center;image;fontSize=12;image=img/lib/mscae/Certificate.svg;" parent="1" vertex="1">
          <mxGeometry x="310" y="25" width="35.71" height="30" as="geometry" />
        </mxCell>
        <mxCell id="J7JJR4KkGGpUHsGLaVsS-23" value="" style="shape=image;html=1;verticalAlign=top;verticalLabelPosition=bottom;labelBackgroundColor=#ffffff;imageAspect=0;aspect=fixed;image=https://cdn2.iconfinder.com/data/icons/crystalproject/32x32/actions/agt_action_fail1.png" parent="1" vertex="1">
          <mxGeometry x="378" y="58" width="20" height="20" as="geometry" />
        </mxCell>
      </root>
    </mxGraphModel>
  </diagram>
</mxfile>
